<svg width="30" height="22" viewBox="0 0 30 22" fill="none" xmlns="http://www.w3.org/2000/svg">
<path d="M27.75 0.375H2.25C1.68641 0.375 1.14591 0.598883 0.747398 0.997398C0.348883 1.39591 0.125 1.93642 0.125 2.5V6.86953V19.4867C0.125 20.0503 0.348883 20.5908 0.747398 20.9893C1.14591 21.3878 1.68641 21.6117 2.25 21.6117H27.75C28.3136 21.6117 28.8541 21.3878 29.2526 20.9893C29.6511 20.5908 29.875 20.0503 29.875 19.4867V2.5C29.875 1.93642 29.6511 1.39591 29.2526 0.997398C28.8541 0.598883 28.3136 0.375 27.75 0.375ZM16.0625 17.375H13.9375C13.6557 17.375 13.3855 17.2631 13.1862 17.0638C12.9869 16.8646 12.875 16.5943 12.875 16.3125C12.875 16.0307 12.9869 15.7605 13.1862 15.5612C13.3855 15.3619 13.6557 15.25 13.9375 15.25H16.0625C16.3443 15.25 16.6145 15.3619 16.8138 15.5612C17.0131 15.7605 17.125 16.0307 17.125 16.3125C17.125 16.5943 17.0131 16.8646 16.8138 17.0638C16.6145 17.2631 16.3443 17.375 16.0625 17.375ZM24.5625 17.375H20.3125C20.0307 17.375 19.7605 17.2631 19.5612 17.0638C19.3619 16.8646 19.25 16.5943 19.25 16.3125C19.25 16.0307 19.3619 15.7605 19.5612 15.5612C19.7605 15.3619 20.0307 15.25 20.3125 15.25H24.5625C24.8443 15.25 25.1145 15.3619 25.3138 15.5612C25.5131 15.7605 25.625 16.0307 25.625 16.3125C25.625 16.5943 25.5131 16.8646 25.3138 17.0638C25.1145 17.2631 24.8443 17.375 24.5625 17.375ZM2.25 5.80703V2.5H27.75V5.80703H2.25Z" fill="#438883"/>
</svg>
