<svg width="32" height="32" viewBox="0 0 32 32" fill="none" xmlns="http://www.w3.org/2000/svg">
<path d="M16 0.5625C12.9467 0.5625 9.96207 1.46789 7.42338 3.16419C4.8847 4.86048 2.90604 7.27149 1.73761 10.0923C0.569181 12.9132 0.263467 16.0171 0.859127 19.0117C1.45479 22.0063 2.92507 24.757 5.08404 26.916C7.24301 29.0749 9.99371 30.5452 12.9883 31.1409C15.9829 31.7365 19.0868 31.4308 21.9077 30.2624C24.7285 29.094 27.1395 27.1153 28.8358 24.5766C30.5321 22.0379 31.4375 19.0532 31.4375 16C31.4297 11.9081 29.8007 7.9861 26.9073 5.09271C24.0139 2.19931 20.0919 0.570346 16 0.5625ZM17.7812 23.125H17.1875V24.3125C17.1875 24.6274 17.0624 24.9295 16.8397 25.1522C16.617 25.3749 16.3149 25.5 16 25.5C15.6851 25.5 15.383 25.3749 15.1603 25.1522C14.9376 24.9295 14.8125 24.6274 14.8125 24.3125V23.125H12.4375C12.1226 23.125 11.8205 22.9999 11.5978 22.7772C11.3751 22.5545 11.25 22.2524 11.25 21.9375C11.25 21.6226 11.3751 21.3205 11.5978 21.0978C11.8205 20.8751 12.1226 20.75 12.4375 20.75H17.7812C18.2537 20.75 18.7067 20.5623 19.0408 20.2283C19.3748 19.8942 19.5625 19.4412 19.5625 18.9688C19.5625 18.4963 19.3748 18.0433 19.0408 17.7092C18.7067 17.3752 18.2537 17.1875 17.7812 17.1875H14.2187C13.1164 17.1875 12.0593 16.7496 11.2798 15.9702C10.5004 15.1907 10.0625 14.1336 10.0625 13.0312C10.0625 11.9289 10.5004 10.8718 11.2798 10.0923C12.0593 9.31289 13.1164 8.875 14.2187 8.875H14.8125V7.6875C14.8125 7.37256 14.9376 7.07051 15.1603 6.84781C15.383 6.62511 15.6851 6.5 16 6.5C16.3149 6.5 16.617 6.62511 16.8397 6.84781C17.0624 7.07051 17.1875 7.37256 17.1875 7.6875V8.875H19.5625C19.8774 8.875 20.1795 9.00011 20.4022 9.22281C20.6249 9.44551 20.75 9.74756 20.75 10.0625C20.75 10.3774 20.6249 10.6795 20.4022 10.9022C20.1795 11.1249 19.8774 11.25 19.5625 11.25H14.2187C13.7463 11.25 13.2933 11.4377 12.9592 11.7717C12.6252 12.1058 12.4375 12.5588 12.4375 13.0312C12.4375 13.5037 12.6252 13.9567 12.9592 14.2908C13.2933 14.6248 13.7463 14.8125 14.2187 14.8125H17.7812C18.8836 14.8125 19.9407 15.2504 20.7202 16.0298C21.4996 16.8093 21.9375 17.8664 21.9375 18.9688C21.9375 20.0711 21.4996 21.1282 20.7202 21.9077C19.9407 22.6871 18.8836 23.125 17.7812 23.125Z" fill="#888888"/>
</svg>
