<svg width="32" height="26" viewBox="0 0 32 26" fill="none" xmlns="http://www.w3.org/2000/svg">
<path d="M31.9375 24.625C31.9375 24.9068 31.8256 25.177 31.6263 25.3763C31.427 25.5755 31.1568 25.6875 30.875 25.6875H1.125C0.843207 25.6875 0.572956 25.5755 0.373699 25.3763C0.174442 25.177 0.0625 24.9068 0.0625 24.625C0.0625 24.3432 0.174442 24.0729 0.373699 23.8737C0.572956 23.6744 0.843207 23.5625 1.125 23.5625H30.875C31.1568 23.5625 31.427 23.6744 31.6263 23.8737C31.8256 24.0729 31.9375 24.3432 31.9375 24.625ZM1.16484 10.0422C1.10153 9.81948 1.11267 9.58222 1.19657 9.36646C1.28048 9.15069 1.43256 8.96824 1.62969 8.84685L15.4422 0.346845C15.6093 0.241931 15.8027 0.186279 16 0.186279C16.1973 0.186279 16.3907 0.241931 16.5578 0.346845L30.3703 8.84685C30.5666 8.96848 30.7179 9.15073 30.8013 9.36602C30.8847 9.58131 30.8958 9.81792 30.8327 10.04C30.7697 10.2622 30.636 10.4577 30.452 10.5971C30.2679 10.7364 30.0434 10.8121 29.8125 10.8125H26.625V19.3125H28.75C29.0318 19.3125 29.302 19.4244 29.5013 19.6237C29.7006 19.8229 29.8125 20.0932 29.8125 20.375C29.8125 20.6568 29.7006 20.927 29.5013 21.1263C29.302 21.3255 29.0318 21.4375 28.75 21.4375H3.25C2.96821 21.4375 2.69796 21.3255 2.4987 21.1263C2.29944 20.927 2.1875 20.6568 2.1875 20.375C2.1875 20.0932 2.29944 19.8229 2.4987 19.6237C2.69796 19.4244 2.96821 19.3125 3.25 19.3125H5.375V10.8125H2.1875C1.95647 10.8127 1.73165 10.7376 1.54712 10.5986C1.36258 10.4596 1.22838 10.2643 1.16484 10.0422ZM18.125 18.25C18.125 18.5318 18.2369 18.802 18.4362 19.0013C18.6355 19.2005 18.9057 19.3125 19.1875 19.3125C19.4693 19.3125 19.7395 19.2005 19.9388 19.0013C20.1381 18.802 20.25 18.5318 20.25 18.25V11.875C20.25 11.5932 20.1381 11.3229 19.9388 11.1237C19.7395 10.9244 19.4693 10.8125 19.1875 10.8125C18.9057 10.8125 18.6355 10.9244 18.4362 11.1237C18.2369 11.3229 18.125 11.5932 18.125 11.875V18.25ZM11.75 18.25C11.75 18.5318 11.8619 18.802 12.0612 19.0013C12.2605 19.2005 12.5307 19.3125 12.8125 19.3125C13.0943 19.3125 13.3645 19.2005 13.5638 19.0013C13.7631 18.802 13.875 18.5318 13.875 18.25V11.875C13.875 11.5932 13.7631 11.3229 13.5638 11.1237C13.3645 10.9244 13.0943 10.8125 12.8125 10.8125C12.5307 10.8125 12.2605 10.9244 12.0612 11.1237C11.8619 11.3229 11.75 11.5932 11.75 11.875V18.25Z" fill="#438883"/>
</svg>
