<svg width="24" height="24" viewBox="0 0 24 24" fill="none" xmlns="http://www.w3.org/2000/svg">
<path d="M23.9047 2.2828L18.1734 22.6156C18.0778 22.9599 17.8785 23.2664 17.6026 23.4934C17.3267 23.7204 16.9875 23.8569 16.6312 23.8844H16.4781C16.1485 23.8836 15.8258 23.7898 15.5471 23.6137C15.2685 23.4376 15.0452 23.1864 14.9031 22.8891L10.9984 14.6422C10.9601 14.5594 10.9479 14.4668 10.9636 14.3769C10.9792 14.287 11.0219 14.2041 11.0859 14.1391L16.6969 8.52812C16.7847 8.44853 16.8554 8.35192 16.9048 8.24416C16.9542 8.1364 16.9811 8.01973 16.9841 7.90123C16.987 7.78274 16.9658 7.66488 16.9218 7.55482C16.8778 7.44476 16.8119 7.34479 16.7281 7.26098C16.6442 7.17716 16.5443 7.11125 16.4342 7.06724C16.3241 7.02323 16.2063 7.00205 16.0878 7.00496C15.9693 7.00788 15.8526 7.03484 15.7449 7.08422C15.6371 7.13359 15.5405 7.20434 15.4609 7.29218L9.84998 12.9141C9.78498 12.9781 9.70199 13.0208 9.61209 13.0364C9.52219 13.052 9.42966 13.0399 9.34685 13.0016L1.14373 9.11874C0.822662 8.9671 0.55311 8.72464 0.368429 8.42137C0.183747 8.1181 0.0920423 7.76734 0.104663 7.41249C0.124023 7.04713 0.258121 6.69718 0.487875 6.41245C0.717629 6.12771 1.03133 5.92268 1.38435 5.82655L21.7609 0.0843649C22.1173 -0.0174151 22.4968 -0.00341176 22.8447 0.124357C23.1927 0.252125 23.491 0.48706 23.6969 0.795302C23.835 1.01435 23.9249 1.26025 23.9607 1.5167C23.9966 1.77316 23.9774 2.0343 23.9047 2.2828Z" fill="url(#paint0_linear_1_2563)"/>
<defs>
<linearGradient id="paint0_linear_1_2563" x1="12.0409" y1="0.0170898" x2="12.0409" y2="23.8844" gradientUnits="userSpaceOnUse">
<stop stop-color="#549994"/>
<stop offset="1" stop-color="#408782"/>
</linearGradient>
</defs>
</svg>
